HIERARCHY
ROOT hip
{
  OFFSET 5.51535 103.731 -2.80141
  CHANNELS 6 Xposition Yposition Zposition Zrotation Xrotation Yrotation
  JOINT abdomen
  {
    OFFSET 0 -1.186 -1.5018
    CHANNELS 6 Xposition Yposition Zposition Zrotation Xrotation Yrotation
    JOINT abdomen2
    {
      OFFSET 0 9.964 0.2134
      CHANNELS 6 Xposition Yposition Zposition Zrotation Xrotation Yrotation
      JOINT chest
      {
        OFFSET 0 13.134 -3.2573
        CHANNELS 6 Xposition Yposition Zposition Zrotation Xrotation Yrotation
        JOINT neck
        {
          OFFSET 0 20.686 -1.6905
          CHANNELS 6 Xposition Yposition Zposition Zrotation Xrotation Yrotation
          JOINT head
          {
            OFFSET 0 7.23801 -0.1237
            CHANNELS 6 Xposition Yposition Zposition Zrotation Xrotation Yrotation
            End Site
            {
              OFFSET 0 0 0
            }
          }
        }
        JOINT lCollar
        {
          OFFSET 1.7069 20.075 5.0056
          CHANNELS 6 Xposition Yposition Zposition Zrotation Xrotation Yrotation
          JOINT lShldr
          {
            OFFSET 13.6458 -0.0470195 -4.849
            CHANNELS 6 Xposition Yposition Zposition Zrotation Xrotation Yrotation
            JOINT lForeArm
            {
              OFFSET 28.3255 -0.97589 2.2888
              CHANNELS 6 Xposition Yposition Zposition Zrotation Xrotation Yrotation
              JOINT lHand
              {
                OFFSET 22.1583 -0.529998 10.8316
                CHANNELS 6 Xposition Yposition Zposition Zrotation Xrotation Yrotation
                JOINT lThumb1
                {
                  OFFSET 0.786 0.111997 2.5817
                  CHANNELS 6 Xposition Yposition Zposition Zrotation Xrotation Yrotation
                  JOINT lThumb2
                  {
                    OFFSET 0.360097 -0.877999 4.2331
                    CHANNELS 6 Xposition Yposition Zposition Zrotation Xrotation Yrotation
                    JOINT lThumb2_End
                    {
                      OFFSET 1.8127 -1.21601 2.2227
                      CHANNELS 6 Xposition Yposition Zposition Zrotation Xrotation Yrotation
                      End Site
                      {
                        OFFSET 0.0180981 -0.012195 0.0222007
                      }
                    }
                  }
                }
                JOINT lCarpal1
                {
                  OFFSET 0.9571 1.114 1.7695
                  CHANNELS 6 Xposition Yposition Zposition Zrotation Xrotation Yrotation
                  JOINT lIndex1
                  {
                    OFFSET 4.12461 0.486992 4.1451
                    CHANNELS 6 Xposition Yposition Zposition Zrotation Xrotation Yrotation
                    JOINT lIndex2
                    {
                      OFFSET 3.4052 -1.45401 2.7682
                      CHANNELS 6 Xposition Yposition Zposition Zrotation Xrotation Yrotation
                      JOINT lIndex2_End
                      {
                        OFFSET 1.45309 -1.79499 1.2713
                        CHANNELS 6 Xposition Yposition Zposition Zrotation Xrotation Yrotation
                        End Site
                        {
                          OFFSET 0.0144979 -0.0179083 0.0126995
                        }
                      }
                    }
                  }
                  JOINT lMid1
                  {
                    OFFSET 5.6954 0.209987 2.1184
                    CHANNELS 6 Xposition Yposition Zposition Zrotation Xrotation Yrotation
                    JOINT lMid2
                    {
                      OFFSET 3.9766 -1.53999 2.3863
                      CHANNELS 6 Xposition Yposition Zposition Zrotation Xrotation Yrotation
                      JOINT lMid2_End
                      {
                        OFFSET 1.4042 -1.926 1.125
                        CHANNELS 6 Xposition Yposition Zposition Zrotation Xrotation Yrotation
                        End Site
                        {
                          OFFSET 0.013999 -0.0193044 0.011301
                        }
                      }
                    }
                  }
                }
                JOINT lCarpal2
                {
                  OFFSET 2.0956 0.66 -0.3894
                  CHANNELS 6 Xposition Yposition Zposition Zrotation Xrotation Yrotation
                  JOINT lRing1
                  {
                    OFFSET 5.0395 -0.090013 2.4971
                    CHANNELS 6 Xposition Yposition Zposition Zrotation Xrotation Yrotation
                    JOINT lRing2
                    {
                      OFFSET 3.7921 -1.55199 1.4806
                      CHANNELS 6 Xposition Yposition Zposition Zrotation Xrotation Yrotation
                      JOINT lRing2_End
                      {
                        OFFSET 1.4655 -1.808 0.9609
                        CHANNELS 6 Xposition Yposition Zposition Zrotation Xrotation Yrotation
                        End Site
                        {
                          OFFSET 0.0147015 -0.0181014 0.00959957
                        }
                      }
                    }
                  }
                  JOINT lPinky1
                  {
                    OFFSET 4.9141 -1.269 0.3591
                    CHANNELS 6 Xposition Yposition Zposition Zrotation Xrotation Yrotation
                    JOINT lPinky2
                    {
                      OFFSET 3.1477 -1.685 0.8462
                      CHANNELS 6 Xposition Yposition Zposition Zrotation Xrotation Yrotation
                      JOINT lPinky2_End
                      {
                        OFFSET 0.805498 -1.58501 0.795499
                        CHANNELS 6 Xposition Yposition Zposition Zrotation Xrotation Yrotation
                        End Site
                        {
                          OFFSET 0.00809703 -0.0157944 0.00799848
                        }
                      }
                    }
                  }
                }
              }
            }
          }
        }
        JOINT rCollar
        {
          OFFSET -1.7069 20.075 5.0056
          CHANNELS 6 Xposition Yposition Zposition Zrotation Xrotation Yrotation
          JOINT rShldr
          {
            OFFSET -13.6458 -0.0470107 -4.849
            CHANNELS 6 Xposition Yposition Zposition Zrotation Xrotation Yrotation
            JOINT rForeArm
            {
              OFFSET -28.3255 -0.975895 2.2888
              CHANNELS 6 Xposition Yposition Zposition Zrotation Xrotation Yrotation
              JOINT rHand
              {
                OFFSET -22.1583 -0.530007 10.8316
                CHANNELS 6 Xposition Yposition Zposition Zrotation Xrotation Yrotation
                JOINT rThumb1
                {
                  OFFSET -0.785997 0.112005 2.5817
                  CHANNELS 6 Xposition Yposition Zposition Zrotation Xrotation Yrotation
                  JOINT rThumb2
                  {
                    OFFSET -0.360106 -0.877994 4.2331
                    CHANNELS 6 Xposition Yposition Zposition Zrotation Xrotation Yrotation
                    JOINT rThumb2_End
                    {
                      OFFSET -1.8127 -1.216 2.2227
                      CHANNELS 6 Xposition Yposition Zposition Zrotation Xrotation Yrotation
                      End Site
                      {
                        OFFSET -0.0180972 -0.0121973 0.0222005
                      }
                    }
                  }
                }
                JOINT rCarpal1
                {
                  OFFSET -0.9571 1.114 1.7695
                  CHANNELS 6 Xposition Yposition Zposition Zrotation Xrotation Yrotation
                  JOINT rIndex1
                  {
                    OFFSET -4.1246 0.487011 4.1451
                    CHANNELS 6 Xposition Yposition Zposition Zrotation Xrotation Yrotation
                    JOINT rIndex2
                    {
                      OFFSET -3.4052 -1.45401 2.7682
                      CHANNELS 6 Xposition Yposition Zposition Zrotation Xrotation Yrotation
                      JOINT rIndex2_End
                      {
                        OFFSET -1.4531 -1.795 1.2713
                        CHANNELS 6 Xposition Yposition Zposition Zrotation Xrotation Yrotation
                        End Site
                        {
                          OFFSET -0.0145077 -0.0180048 0.0127017
                        }
                      }
                    }
                  }
                  JOINT rMid1
                  {
                    OFFSET -5.6954 0.210002 2.1184
                    CHANNELS 6 Xposition Yposition Zposition Zrotation Xrotation Yrotation
                    JOINT rMid2
                    {
                      OFFSET -3.9766 -1.54 2.3863
                      CHANNELS 6 Xposition Yposition Zposition Zrotation Xrotation Yrotation
                      JOINT rMid2_End
                      {
                        OFFSET -1.4042 -1.926 1.125
                        CHANNELS 6 Xposition Yposition Zposition Zrotation Xrotation Yrotation
                        End Site
                        {
                          OFFSET -0.0139948 -0.0192916 0.0112994
                        }
                      }
                    }
                  }
                }
                JOINT rCarpal2
                {
                  OFFSET -2.0956 0.66 -0.3894
                  CHANNELS 6 Xposition Yposition Zposition Zrotation Xrotation Yrotation
                  JOINT rRing1
                  {
                    OFFSET -5.03951 -0.0899879 2.4971
                    CHANNELS 6 Xposition Yposition Zposition Zrotation Xrotation Yrotation
                    JOINT rRing2
                    {
                      OFFSET -3.7921 -1.55201 1.4806
                      CHANNELS 6 Xposition Yposition Zposition Zrotation Xrotation Yrotation
                      JOINT rRing2_End
                      {
                        OFFSET -1.4655 -1.808 0.960901
                        CHANNELS 6 Xposition Yposition Zposition Zrotation Xrotation Yrotation
                        End Site
                        {
                          OFFSET -0.0146934 -0.0180999 0.00959832
                        }
                      }
                    }
                  }
                  JOINT rPinky1
                  {
                    OFFSET -4.91411 -1.26899 0.359202
                    CHANNELS 6 Xposition Yposition Zposition Zrotation Xrotation Yrotation
                    JOINT rPinky2
                    {
                      OFFSET -3.14769 -1.68501 0.846199
                      CHANNELS 6 Xposition Yposition Zposition Zrotation Xrotation Yrotation
                      JOINT rPinky2_End
                      {
                        OFFSET -0.805498 -1.585 0.7955
                        CHANNELS 6 Xposition Yposition Zposition Zrotation Xrotation Yrotation
                        End Site
                        {
                          OFFSET -0.00810035 -0.0158035 0.00800029
                        }
                      }
                    }
                  }
                }
              }
            }
          }
        }
      }
    }
  }
  JOINT lThigh
  {
    OFFSET 8.367 -8.2066 0.5982
    CHANNELS 6 Xposition Yposition Zposition Zrotation Xrotation Yrotation
    JOINT lShin
    {
      OFFSET 2.1923 -43.463 -0.4932
      CHANNELS 6 Xposition Yposition Zposition Zrotation Xrotation Yrotation
      JOINT lFoot
      {
        OFFSET 0.733301 -45.8593 -2.6451
        CHANNELS 6 Xposition Yposition Zposition Zrotation Xrotation Yrotation
        End Site
        {
          OFFSET 2.6618 -4.2699 12.3931
        }
      }
    }
  }
  JOINT rThigh
  {
    OFFSET -8.367 -8.2066 0.5982
    CHANNELS 6 Xposition Yposition Zposition Zrotation Xrotation Yrotation
    JOINT rShin
    {
      OFFSET -2.1923 -43.463 -0.4931
      CHANNELS 6 Xposition Yposition Zposition Zrotation Xrotation Yrotation
      JOINT rFoot
      {
        OFFSET -0.733299 -45.8593 -2.6451
        CHANNELS 6 Xposition Yposition Zposition Zrotation Xrotation Yrotation
        End Site
        {
          OFFSET -2.6618 -4.2699 12.3931
        }
      }
    }
  }
}
MOTION
Frames:	4
Frame Time:	0.0333333
-0.718087 96.4093 20.1112 -2.24184 27.764 -1.05314 1.96621e-007 -1.186 -1.5018 2.59595 3.81065 -0.823526 -1.06082e-007 9.964 0.213398 5.264 7.57947 -1.82563 -1.75403e-007 13.134 -3.2573 5.264 7.57947 -1.82563 3.41601e-006 20.686 -1.69049 -11.4147 21.2985 -6.61837 -5.4407e-007 7.23802 -0.123689 9.3488 7.23516 -6.20093 1.7069 20.075 5.0056 2.74913 3.42237 12.3255 13.6458 -0.0470188 -4.849 -67.6556 12.9298 13.6856 28.3255 -0.975895 2.2888 -56.4976 61.5724 4.76913 22.1583 -0.529987 10.8316 27.7536 27.8507 -28.4378 0.786002 0.111996 2.5817 2.84361 2.10929 10.0595 0.360094 -0.877999 4.2331 -1.09074 -0.111814 -1.99643 1.8127 -1.21601 2.2227 2.43411 0.389407 4.48058 0.9571 1.114 1.7695 3.18055e-015 -3.18055e-015 -1.59028e-015 4.1246 0.486992 4.1451 -13.8369 8.62935 14.1278 3.4052 -1.454 2.7682 -9.29987 3.74258 4.05999 1.4531 -1.79499 1.2713 -11.5242 4.5208 5.09915 5.6954 0.209988 2.1184 -8.92767 7.19308 5.49514 3.9766 -1.53999 2.3863 -13.1422 5.65828 6.01039 1.4042 -1.926 1.125 -9.10276 4.09728 4.05606 2.0956 0.66 -0.3894 3.18055e-015 -3.18055e-015 -1.59028e-015 5.0395 -0.0900114 2.4971 -8.28264 3.49753 3.63811 3.7921 -1.55199 1.4806 -12.5204 5.8118 6.44654 1.4655 -1.808 0.960899 -8.56755 4.16572 4.31291 4.9141 -1.269 0.359101 -9.11665 3.43397 2.58147 3.1477 -1.68501 0.846201 -10.3413 5.30401 5.21637 0.8055 -1.585 0.795499 -8.68401 4.53611 4.33428 -1.7069 20.075 5.00561 3.38494 -1.54865 -15.6528 -13.6458 -0.0470179 -4.849 72.723 3.45017 -25.4329 -28.3255 -0.975883 2.28881 44.2955 68.6456 -7.07883 -22.1583 -0.530007 10.8316 -54.513 33.703 20.5286 -0.786 0.112005 2.5817 -7.24634 0.768469 -12.2349 -0.360107 -0.877993 4.2331 -0.219296 0.19208 -0.668667 -1.8127 -1.216 2.2227 -2.30919 2.27747 -7.40711 -0.9571 1.114 1.7695 0 3.18055e-015 -0 -4.1246 0.48701 4.1451 4.84745 6.97704 -6.8439 -3.4052 -1.45401 2.7682 -1.24163 -0.416326 0.170065 -1.45309 -1.795 1.2713 1.11731 0.371286 -0.160527 -5.6954 0.210002 2.1184 -6.10569 0.998034 0.751159 -3.9766 -1.54 2.3863 -2.03902 -0.773224 0.266597 -1.4042 -1.926 1.125 -6.30275 -2.42159 0.735567 -2.0956 0.66 -0.3894 0 3.18055e-015 -0 -5.03951 -0.0899867 2.4971 -10.6279 -5.26864 1.68784 -3.7921 -1.55201 1.4806 -6.04277 -2.57069 0.95895 -1.4655 -1.808 0.960901 -10.2278 -4.41119 1.46482 -4.91411 -1.26899 0.359202 -9.70149 -6.4302 2.33479 -3.1477 -1.68501 0.846199 -8.15634 -3.74011 1.11016 -0.805497 -1.585 0.7955 -9.91898 -4.56882 1.2799 8.367 -8.2066 0.598199 -6.64647 -43.4659 -29.8629 2.1923 -43.463 -0.493199 -1.51791 42.5023 0.0912101 0.733299 -45.8593 -2.64509 1.47624 -24.871 -0.187453 -8.367 -8.2066 0.598201 11.7784 -40.9333 38.1089 -2.1923 -43.463 -0.493098 12.0252 37.9325 -3.96849 -0.733301 -45.8593 -2.6451 -8.6499 -23.2538 3.59972 
-0.625501 96.6118 20.1705 -2.40675 27.5562 -0.849027 3.85292e-008 -1.186 -1.5018 2.3195 3.43184 -0.538548 1.65251e-008 9.964 0.2134 4.68383 6.83874 -1.21935 1.79578e-007 13.134 -3.2573 4.68383 6.83873 -1.21935 -1.04907e-005 20.6861 -1.69047 -9.68417 21.5808 -7.92984 -1.13377e-006 7.23802 -0.123701 10.611 10.0381 -7.70123 1.7069 20.075 5.0056 2.74912 3.42238 12.3255 13.6458 -0.0470204 -4.849 -65.7932 12.6428 13.7287 28.3255 -0.975895 2.2888 -59.264 62.6874 5.49535 22.1583 -0.529992 10.8316 25.6494 28.3235 -25.6884 0.786001 0.111995 2.5817 2.84362 2.10929 10.0595 0.360098 -0.877998 4.2331 -1.09078 -0.111859 -1.99641 1.8127 -1.21601 2.2227 2.43409 0.389422 4.48056 0.9571 1.114 1.7695 -6.36111e-015 3.18055e-015 -1.59028e-015 4.1246 0.48699 4.1451 -13.8369 8.62934 14.1278 3.4052 -1.45401 2.7682 -9.29989 3.74245 4.06004 1.4531 -1.79499 1.2713 -11.5243 4.52059 5.0993 5.6954 0.209986 2.1184 -8.9277 7.19299 5.49511 3.9766 -1.53999 2.3863 -13.1421 5.6583 6.01053 1.4042 -1.926 1.125 -9.10272 4.09745 4.05598 2.0956 0.66 -0.3894 -6.36111e-015 3.18055e-015 -1.59028e-015 5.03951 -0.0900113 2.4971 -8.28267 3.49742 3.63807 3.7921 -1.55199 1.4806 -12.5204 5.81168 6.44668 1.4655 -1.808 0.9609 -8.56754 4.16586 4.31281 4.9141 -1.269 0.359101 -9.11665 3.43393 2.58147 3.1477 -1.685 0.8462 -10.3413 5.30384 5.21653 0.805499 -1.585 0.795499 -8.684 4.53623 4.3342 -1.7069 20.075 5.0056 3.10877 -1.36625 -15.5074 -13.6458 -0.0470119 -4.849 72.3934 0.136786 -25.1529 -28.3255 -0.975893 2.2888 50.7938 74.0127 -13.4726 -22.1583 -0.530006 10.8316 -51.8931 31.6136 17.2479 -0.786004 0.112006 2.5817 -7.24632 0.768367 -12.2349 -0.360107 -0.877993 4.2331 -0.219312 0.192106 -0.668656 -1.8127 -1.216 2.2227 -2.30921 2.27754 -7.40708 -0.9571 1.114 1.7695 -4.77083e-015 -3.18055e-015 -7.95139e-016 -4.1246 0.487011 4.1451 4.84742 6.97705 -6.8439 -3.4052 -1.45401 2.7682 -1.24163 -0.416322 0.170052 -1.4531 -1.795 1.2713 1.11732 0.371282 -0.160528 -5.69541 0.210003 2.1184 -6.10569 0.998029 0.751157 -3.9766 -1.54 2.3863 -2.03904 -0.773221 0.266596 -1.4042 -1.926 1.125 -6.30274 -2.42159 0.735582 -2.0956 0.66 -0.3894 -4.77083e-015 -3.18055e-015 -7.95139e-016 -5.03951 -0.0899885 2.4971 -10.628 -5.26857 1.68785 -3.7921 -1.55201 1.4806 -6.04276 -2.57069 0.958946 -1.4655 -1.808 0.960901 -10.2278 -4.41119 1.46482 -4.91411 -1.26899 0.359201 -9.70151 -6.43018 2.33479 -3.1477 -1.68501 0.846198 -8.15634 -3.74011 1.11018 -0.805503 -1.585 0.795499 -9.91897 -4.56882 1.2799 8.367 -8.2066 0.598197 -6.32885 -42.9883 -29.6106 2.1923 -43.4631 -0.493202 -1.567 41.8786 -0.0218009 0.733305 -45.8593 -2.6451 1.59953 -24.5621 -0.245862 -8.367 -8.2066 0.598196 11.5974 -40.3274 37.8922 -2.1923 -43.4631 -0.493103 11.6457 37.2296 -3.73196 -0.733304 -45.8593 -2.6451 -8.31789 -23.1005 3.5986 
-0.509326 96.8284 20.25 -2.58303 27.323 -0.634918 1.29077e-007 -1.186 -1.5018 2.00324 2.98862 -0.219515 -2.47286e-009 9.964 0.2134 4.02615 5.96785 -0.544791 -2.434e-008 13.134 -3.2573 4.02615 5.96785 -0.544792 -1.21808e-006 20.686 -1.69049 -7.86286 21.7857 -9.28533 -4.58922e-007 7.238 -0.123699 11.8345 12.3 -9.18894 1.7069 20.075 5.0056 2.74916 3.42243 12.3255 13.6458 -0.0470141 -4.849 -63.789 12.3717 13.7555 28.3255 -0.97589 2.2888 -62.4176 63.8502 6.36003 22.1583 -0.529997 10.8316 23.1613 28.6313 -22.541 0.786005 0.111998 2.5817 2.84363 2.1093 10.0595 0.360098 -0.877998 4.2331 -1.09071 -0.111784 -1.99644 1.81269 -1.21601 2.2227 2.4341 0.389379 4.48058 0.9571 1.114 1.7695 3.18055e-015 3.18055e-015 -0 4.1246 0.486993 4.1451 -13.8369 8.6293 14.1278 3.4052 -1.45401 2.7682 -9.29988 3.74258 4.05998 1.4531 -1.79499 1.2713 -11.5242 4.52088 5.09913 5.69541 0.209989 2.1184 -8.92765 7.19317 5.49517 3.9766 -1.53999 2.3863 -13.1421 5.65854 6.01026 1.4042 -1.926 1.125 -9.10278 4.09716 4.05614 2.0956 0.66 -0.3894 3.18055e-015 3.18055e-015 -0 5.03951 -0.0900107 2.4971 -8.28261 3.49764 3.63811 3.7921 -1.55199 1.4806 -12.5204 5.8118 6.44651 1.4655 -1.808 0.9609 -8.56756 4.16568 4.31296 4.9141 -1.26901 0.3591 -9.11668 3.43398 2.58146 3.1477 -1.68501 0.846201 -10.3413 5.3041 5.2163 0.805497 -1.58501 0.7955 -8.68402 4.53601 4.33436 -1.7069 20.075 5.00561 2.75597 -1.13327 -15.3208 -13.6458 -0.0470218 -4.849 72.1086 -3.76966 -24.3938 -28.3255 -0.97589 2.28879 -13.9713 86.4362 51.263 -22.1583 -0.530012 10.8316 -48.8919 28.3874 13.1327 -0.786001 0.112005 2.5817 -7.24638 0.768561 -12.2349 -0.360103 -0.877993 4.2331 -0.219336 0.192135 -0.668654 -1.81269 -1.216 2.2227 -2.30927 2.27761 -7.40705 -0.9571 1.114 1.7695 2.38542e-015 0 -5.96354e-016 -4.12461 0.487012 4.1451 4.84741 6.97708 -6.8439 -3.4052 -1.45401 2.7682 -1.24165 -0.416292 0.170058 -1.4531 -1.795 1.2713 1.1173 0.371292 -0.160528 -5.6954 0.210002 2.1184 -6.10571 0.998056 0.751155 -3.9766 -1.54 2.3863 -2.03905 -0.773158 0.266632 -1.4042 -1.926 1.125 -6.30276 -2.42158 0.735579 -2.0956 0.66 -0.3894 2.38542e-015 0 -5.96354e-016 -5.03951 -0.0899874 2.4971 -10.6279 -5.2687 1.68782 -3.7921 -1.55201 1.4806 -6.04276 -2.5707 0.958945 -1.4655 -1.808 0.960901 -10.2278 -4.41118 1.46482 -4.91411 -1.26899 0.359201 -9.70152 -6.43011 2.33479 -3.14769 -1.68501 0.846199 -8.15636 -3.74004 1.11022 -0.805502 -1.585 0.795499 -9.91898 -4.56882 1.27991 8.36701 -8.2066 0.598201 -6.00222 -42.448 -29.3486 2.1923 -43.463 -0.493199 -1.61636 41.2021 -0.137715 0.733301 -45.8593 -2.64511 1.74276 -24.2331 -0.306519 -8.367 -8.2066 0.598198 11.4224 -39.6424 37.6669 -2.1923 -43.463 -0.4931 11.1816 36.4732 -3.458 -0.733299 -45.8593 -2.64512 -7.90949 -22.9711 3.61016 
-0.374443 97.0558 20.3443 -2.76405 27.0697 -0.414994 8.72281e-008 -1.186 -1.5018 1.65615 2.49971 0.121372 -1.24148e-009 9.964 0.2134 3.31171 5.00195 0.170538 -1.98056e-008 13.134 -3.2573 3.31171 5.00194 0.170539 -3.71873e-007 20.686 -1.69049 -6.12588 22.0858 -10.5048 1.34146e-006 7.238 -0.123685 12.8215 13.9691 -10.5105 1.7069 20.075 5.0056 2.74909 3.4223 12.3255 13.6458 -0.047014 -4.849 -61.7258 12.1164 13.7598 28.3255 -0.975883 2.2888 -65.8412 64.9993 7.36063 22.1583 -0.529992 10.8316 20.4023 28.7189 -19.1054 0.786001 0.111994 2.5817 2.84359 2.10926 10.0595 0.360098 -0.877996 4.2331 -1.09071 -0.111783 -1.99648 1.8127 -1.21601 2.2227 2.4341 0.389393 4.48058 0.9571 1.114 1.7695 0 0 -1.59028e-015 4.1246 0.486993 4.1451 -13.8369 8.62922 14.1278 3.4052 -1.454 2.7682 -9.2999 3.74244 4.06005 1.4531 -1.79499 1.2713 -11.5242 4.52088 5.09917 5.6954 0.209987 2.1184 -8.92762 7.19314 5.49517 3.9766 -1.53999 2.3863 -13.1421 5.65843 6.01042 1.4042 -1.926 1.125 -9.10276 4.09725 4.05606 2.0956 0.66 -0.3894 0 0 -1.59028e-015 5.0395 -0.0900122 2.4971 -8.28258 3.49759 3.63814 3.7921 -1.55199 1.4806 -12.5204 5.81175 6.44658 1.4655 -1.808 0.960899 -8.56755 4.16578 4.31285 4.9141 -1.269 0.359102 -9.11667 3.43391 2.58148 3.1477 -1.685 0.8462 -10.3412 5.30405 5.21639 0.805498 -1.58501 0.7955 -8.68401 4.53604 4.33432 -1.7069 20.075 5.00561 2.34586 -0.862833 -15.1029 -13.6458 -0.0470089 -4.849 72.4055 -6.90604 -23.4312 -28.3255 -0.975898 2.2888 -101.302 77.4846 137.5 -22.1583 -0.53001 10.8316 -46.0599 24.578 9.11288 -0.786004 0.112005 2.5817 -7.24637 0.768545 -12.2349 -0.360105 -0.877993 4.2331 -0.219377 0.192165 -0.668605 -1.81269 -1.216 2.2227 -2.30916 2.27745 -7.40711 -0.9571 1.114 1.7695 7.95139e-016 3.18055e-015 -3.97569e-016 -4.12461 0.487012 4.1451 4.84738 6.97718 -6.84392 -3.4052 -1.45401 2.7682 -1.24166 -0.416277 0.170067 -1.4531 -1.795 1.2713 1.11731 0.371281 -0.16052 -5.6954 0.210002 2.1184 -6.1057 0.998048 0.751168 -3.9766 -1.54 2.3863 -2.03904 -0.773251 0.266569 -1.4042 -1.926 1.125 -6.30276 -2.42156 0.735605 -2.0956 0.66 -0.3894 7.95139e-016 3.18055e-015 -3.97569e-016 -5.03951 -0.0899872 2.4971 -10.6279 -5.2687 1.68782 -3.79209 -1.55201 1.4806 -6.04277 -2.57069 0.958939 -1.4655 -1.808 0.960901 -10.2278 -4.41118 1.46483 -4.91411 -1.26899 0.359201 -9.70158 -6.43001 2.3348 -3.1477 -1.68501 0.846198 -8.15633 -3.74015 1.11013 -0.805499 -1.585 0.7955 -9.91899 -4.56883 1.27989 8.36701 -8.20661 0.598202 -5.67285 -41.8568 -29.0817 2.1923 -43.463 -0.493204 -1.66571 40.4799 -0.25557 0.733297 -45.8593 -2.6451 1.90046 -23.8857 -0.369555 -8.36701 -8.2066 0.598199 11.255 -38.89 37.4371 -2.1923 -43.463 -0.493101 10.6407 35.6711 -3.15599 -0.7333 -45.8593 -2.64509 -7.4482 -22.8546 3.62677 
